<svg xmlns="http://www.w3.org/2000/svg" xmlns:xlink="http://www.w3.org/1999/xlink" width="1080" zoomAndPan="magnify" viewBox="0 0 810 809.999993" height="1080" preserveAspectRatio="xMidYMid meet" version="1.0"><defs><clipPath id="7ed0e120b3"><path d="M 266 116.859375 L 544.613281 116.859375 L 544.613281 692.859375 L 266 692.859375 Z M 266 116.859375 " clip-rule="nonzero"/></clipPath><clipPath id="2a9b6b64fc"><path d="M 405 291.785156 L 444.980469 291.785156 L 444.980469 367 L 405 367 Z M 405 291.785156 " clip-rule="nonzero"/></clipPath><clipPath id="2aa7e18ef4"><path d="M 424.992188 291.785156 C 436.03125 291.785156 444.980469 300.738281 444.980469 311.777344 L 444.980469 346.996094 C 444.980469 358.035156 436.03125 366.984375 424.992188 366.984375 C 413.949219 366.984375 405 358.035156 405 346.996094 L 405 311.777344 C 405 300.738281 413.949219 291.785156 424.992188 291.785156 Z M 424.992188 291.785156 " clip-rule="nonzero"/></clipPath></defs><g clip-path="url(#7ed0e120b3)"><path fill="#ffffff" d="M 538.035156 286.566406 C 537.824219 296.070312 536.589844 304.125 534.367188 310.507812 C 529.589844 324.226562 522.207031 338.144531 509.484375 350.863281 C 434.027344 426.324219 373.125 423.425781 300.5625 350.863281 C 287.839844 338.140625 280.457031 324.226562 275.679688 310.503906 C 273.457031 304.125 272.222656 296.070312 272.011719 286.566406 C 271.792969 276.746094 272.667969 265.238281 274.609375 252.351562 C 279.679688 218.726562 291.140625 181.480469 299.855469 156.152344 C 305.183594 140.675781 310.410156 124.5 312.6875 118.738281 L 496.050781 118.734375 C 498.332031 124.496094 504.863281 140.675781 510.191406 156.152344 C 518.90625 181.472656 530.363281 218.722656 535.433594 252.351562 C 537.378906 265.234375 538.253906 276.746094 538.035156 286.566406 Z M 541.34375 251.460938 C 536.277344 217.871094 525.027344 180.890625 515.839844 154.207031 C 508.179688 131.953125 501.957031 116.859375 501.957031 116.859375 C 500.410156 116.859375 498.859375 116.859375 497.3125 116.859375 C 495.957031 116.859375 494.597656 116.859375 493.242188 116.859375 C 491.503906 116.859375 489.765625 116.859375 488.03125 116.859375 C 483.796875 116.859375 479.566406 116.859375 475.335938 116.859375 C 465.472656 116.859375 455.613281 116.859375 445.75 116.859375 C 432.105469 116.859375 418.460938 116.859375 404.820312 116.859375 C 393.671875 116.859375 382.53125 116.859375 371.386719 116.859375 C 358.8125 116.859375 346.242188 116.859375 333.667969 116.859375 C 331.238281 116.859375 328.808594 116.859375 326.378906 116.859375 C 324.230469 116.859375 322.085938 116.859375 319.941406 116.859375 C 317.25 116.859375 314.558594 116.859375 311.867188 116.859375 C 310.609375 116.859375 309.351562 116.859375 308.089844 116.859375 C 308.089844 116.859375 301.867188 131.953125 294.207031 154.207031 C 285.019531 180.890625 273.769531 217.871094 268.699219 251.460938 C 266.824219 263.902344 265.796875 275.882812 266.035156 286.703125 C 266.25 296.386719 267.484375 305.144531 270.035156 312.472656 C 275.542969 328.289062 284.957031 342.324219 296.101562 354.839844 C 315.410156 376.519531 339.917969 393.617188 358.316406 407.445312 C 373.144531 418.589844 384.007812 427.609375 384.976562 435.1875 C 384.980469 435.222656 384.992188 435.253906 385.015625 435.289062 C 385.019531 435.296875 385.035156 435.304688 385.039062 435.3125 C 385.097656 435.40625 385.171875 435.484375 385.234375 435.585938 C 385.285156 435.648438 387.347656 441.777344 390.847656 449.765625 C 391.296875 450.796875 391.796875 451.808594 392.179688 452.855469 C 392.839844 454.632812 393.464844 456.933594 394.035156 459.785156 C 397.578125 477.421875 399.371094 515.65625 399.371094 573.796875 C 399.371094 587.359375 399.175781 598.902344 398.84375 608.730469 C 397.746094 641.6875 395.113281 655.324219 393.03125 661.3125 C 391.835938 664.738281 390.828125 665.660156 390.398438 666.289062 C 390.050781 666.789062 389.816406 667.136719 389.757812 668.136719 C 348.625 669.199219 317.433594 674.351562 317.433594 680.539062 C 317.433594 687.480469 356.890625 693.121094 405.570312 693.121094 C 454.25 693.121094 493.710938 687.480469 493.710938 680.539062 C 493.710938 674.300781 461.972656 669.113281 420.316406 668.109375 C 420.253906 667.132812 420.019531 666.78125 419.675781 666.289062 C 419.234375 665.660156 418.285156 664.738281 417.183594 661.300781 C 415.230469 655.296875 412.808594 641.660156 411.800781 608.671875 C 411.492188 598.871094 411.3125 587.34375 411.3125 573.796875 C 411.3125 515.625 412.679688 477.40625 416.082031 459.753906 C 416.625 456.917969 417.226562 454.601562 417.898438 452.839844 C 418.285156 451.796875 418.761719 450.765625 419.222656 449.734375 C 422.71875 441.761719 424.785156 435.558594 424.828125 435.484375 C 424.90625 435.378906 424.984375 435.277344 425.058594 435.175781 C 425.0625 435.171875 425.070312 435.171875 425.074219 435.167969 C 426.046875 427.589844 436.898438 418.589844 451.730469 407.445312 C 470.128906 393.617188 494.636719 376.519531 513.945312 354.839844 C 525.089844 342.328125 534.503906 328.289062 540.011719 312.472656 C 542.5625 305.144531 543.792969 296.386719 544.007812 286.703125 C 544.25 275.882812 543.21875 263.90625 541.34375 251.460938 " fill-opacity="1" fill-rule="nonzero"/></g><path fill="#ffffff" d="M 281.160156 258.503906 C 279.660156 269.414062 278.992188 279.175781 279.179688 287.566406 C 279.371094 296.125 280.4375 303.253906 282.351562 308.753906 C 287.460938 323.425781 294.902344 335.519531 305.109375 345.722656 C 341.191406 381.804688 372.339844 398.609375 403.136719 398.609375 C 418.4375 398.609375 433.675781 394.457031 449.714844 385.914062 C 466.1875 377.144531 483.074219 364 501.351562 345.722656 C 511.558594 335.519531 519 323.425781 524.109375 308.753906 C 526.023438 303.257812 527.09375 296.125 527.28125 287.566406 C 527.488281 278.257812 526.648438 267.261719 524.78125 254.882812 C 523.808594 248.449219 522.59375 241.867188 521.210938 235.261719 C 392.121094 229.652344 382.261719 346.175781 281.160156 258.503906 " fill-opacity="1" fill-rule="nonzero"/><g clip-path="url(#2a9b6b64fc)"><g clip-path="url(#2aa7e18ef4)"><path fill="#ffffff" d="M 405 291.785156 L 444.980469 291.785156 L 444.980469 366.910156 L 405 366.910156 Z M 405 291.785156 " fill-opacity="1" fill-rule="nonzero"/></g></g></svg>